<svg width="89" height="54" viewBox="0 0 89 54" fill="none" xmlns="http://www.w3.org/2000/svg">
<path d="M22.6641 25.8574H15.7688L44.4992 0L73.2297 25.8574H66.909L44.4992 6.89531L22.6641 25.8574Z" fill="#003580"/>
<path d="M42.2023 53.4386C32.5489 46.0836 15.1942 48.2672 7.72426 50.5656C3.12738 46.4284 1.97817 41.5634 1.97817 39.648C22.2044 35.0512 38.7547 42.9041 44.5008 47.1179C57.372 37.9242 78.2096 38.4988 87.0203 40.2226C85.6412 44.8195 81.8488 49.0333 80.125 50.5656C64.0359 45.9687 51.5876 50.7571 47.3738 53.4386H42.2023Z" fill="#FF9C07"/>
<path d="M0.253977 25.2828C25.0771 26.2022 39.3274 37.1581 43.3497 42.5211C29.5575 30.1095 8.87248 28.5389 0.253977 29.3051C-0.206 27.4663 0.06232 25.8574 0.253977 25.2828Z" fill="#FF9C07"/>
<path d="M42.7754 43.6703C37.2209 39.648 21.5164 33.9019 0.828948 36.2004C0.445876 35.6258 -0.0904262 33.9019 0.828948 31.6035C10.0228 30.8374 31.2835 32.1781 42.7754 43.6703Z" fill="#FF9C07"/>
<path d="M88.746 25.3562C63.9229 26.2756 49.6726 37.2315 45.6503 42.5945C59.4425 30.1829 80.1275 28.6123 88.746 29.3785C89.206 27.5397 88.9377 25.9308 88.746 25.3562Z" fill="#FF9C07"/>
<path d="M46.2246 43.7437C51.7791 39.7214 67.4836 33.9753 88.1711 36.2738C88.5541 35.6992 89.0904 33.9753 88.1711 31.6769C78.9772 30.9108 57.7165 32.2515 46.2246 43.7437Z" fill="#FF9C07"/>
<rect x="37.6084" y="17.8127" width="5.74609" height="5.74609" fill="#7B89A5"/>
<rect x="45.6528" y="17.8127" width="5.74609" height="5.74609" fill="#7B89A5"/>
<rect x="45.6528" y="25.8572" width="5.74609" height="5.74609" fill="#7B89A5"/>
<rect x="37.6084" y="25.8572" width="5.74609" height="5.74609" fill="#7B89A5"/>
</svg>
