<svg width="16" height="17" viewBox="0 0 16 17" fill="none" xmlns="http://www.w3.org/2000/svg">
<path d="M8.77128 12.0415C8.37135 12.4224 8.35591 13.0553 8.7368 13.4553C9.11769 13.8552 9.75066 13.8706 10.1506 13.4898L8.77128 12.0415ZM14.5256 9.3231C14.9255 8.94221 14.941 8.30923 14.5601 7.9093C14.1792 7.50937 13.5462 7.49393 13.1463 7.87482L14.5256 9.3231ZM13.1463 9.3231C13.5462 9.70398 14.1792 9.68854 14.5601 9.28861C14.941 8.88868 14.9255 8.25571 14.5256 7.87482L13.1463 9.3231ZM10.1506 3.70815C9.75066 3.32727 9.11769 3.34271 8.7368 3.74264C8.35591 4.14257 8.37135 4.77554 8.77128 5.15643L10.1506 3.70815ZM13.8359 9.59896C14.3882 9.59896 14.8359 9.15124 14.8359 8.59896C14.8359 8.04667 14.3882 7.59896 13.8359 7.59896V9.59896ZM2.16927 7.59896C1.61699 7.59896 1.16927 8.04667 1.16927 8.59896C1.16927 9.15124 1.61699 9.59896 2.16927 9.59896V7.59896ZM10.1506 13.4898L14.5256 9.3231L13.1463 7.87482L8.77128 12.0415L10.1506 13.4898ZM14.5256 7.87482L10.1506 3.70815L8.77128 5.15643L13.1463 9.3231L14.5256 7.87482ZM13.8359 7.59896L2.16927 7.59896V9.59896L13.8359 9.59896V7.59896Z" fill="white"/>
</svg>
