<svg width="170" height="50" viewBox="0 0 170 50" fill="none" xmlns="http://www.w3.org/2000/svg">
<g clip-path="url(#clip0_5016_281343)">
<path d="M47.9048 25.0924C47.9048 26.944 46.7816 28.052 44.8684 28.052C42.9604 28.052 41.832 26.944 41.832 25.0924C41.832 23.2408 42.9554 22.1328 44.8684 22.1328C46.7816 22.1328 47.9048 23.2408 47.9048 25.0924ZM47.2842 25.0924C47.2842 23.5946 46.3816 22.7074 44.8736 22.7074C43.3656 22.7074 42.4576 23.5946 42.4576 25.0924C42.4576 26.5902 43.3606 27.4774 44.8736 27.4774C46.3816 27.4774 47.2842 26.5902 47.2842 25.0924ZM45.73 25.759L46.2174 26.5286H45.5658L44.8992 25.431H44.2784V26.5286H43.6732V23.5844H45.0222C45.7198 23.5844 46.1304 23.923 46.1304 24.518C46.1304 25.0822 45.7146 25.4052 45.0222 25.4052V25.436C45.33 25.436 45.5966 25.554 45.73 25.759ZM44.9762 24.9744C45.3046 24.9744 45.494 24.8104 45.494 24.5282C45.494 24.246 45.2994 24.082 44.9762 24.082H44.2784V24.9694H44.9762V24.9744Z" fill="#F54C3B"/>
<path d="M54.5938 18.7792H56.7122V24.2138H62.6992V18.7792H64.8178V31.6928H62.6992V26.0928H56.7122V31.6928H54.5938V18.7792ZM66.616 26.9956C66.616 26.0252 66.8064 25.1778 67.187 24.4532C67.5802 23.7164 68.1203 23.1514 68.8082 22.7584C69.5082 22.3532 70.3064 22.1504 71.2027 22.1504C72.1117 22.1504 72.91 22.3348 73.5975 22.7032C74.2978 23.0716 74.8442 23.5934 75.2372 24.2688C75.6426 24.9442 75.8514 25.7366 75.8636 26.6454C75.8636 26.891 75.8452 27.1428 75.8083 27.4006H68.6975V27.5112C68.7467 28.334 69.0045 28.985 69.4714 29.4638C69.938 29.9428 70.5582 30.1822 71.3318 30.1822C71.946 30.1822 72.4618 30.041 72.8794 29.7586C73.2968 29.4638 73.5732 29.0524 73.7082 28.5244H75.6975C75.5259 29.4822 75.0591 30.2682 74.2978 30.8824C73.5486 31.4962 72.6091 31.8034 71.4792 31.8034C70.4967 31.8034 69.6372 31.6066 68.9001 31.2136C68.1758 30.8084 67.6105 30.2438 67.2056 29.5192C66.8124 28.7946 66.616 27.9534 66.616 26.9956ZM73.8372 25.9454C73.7512 25.2576 73.475 24.7234 73.0082 24.3426C72.5538 23.9498 71.9766 23.7532 71.2766 23.7532C70.6258 23.7532 70.0608 23.9558 69.5818 24.3612C69.1152 24.754 68.8449 25.2822 68.7713 25.9454H73.8372ZM88.3591 22.1504C89.3901 22.1504 90.2318 22.488 90.8824 23.1636C91.534 23.8266 91.8591 24.8952 91.8591 26.3688V31.6928H89.8695V26.3874C89.8695 25.5646 89.7036 24.9382 89.3724 24.5084C89.0408 24.0786 88.5494 23.8638 87.8988 23.8638C87.2105 23.8638 86.664 24.1094 86.2586 24.6006C85.8661 25.0794 85.6692 25.7428 85.6692 26.59V31.6928H83.6614V26.3874C83.6614 25.5524 83.4893 24.926 83.146 24.5084C82.8139 24.0786 82.3232 23.8638 81.672 23.8638C80.9964 23.8638 80.4557 24.1154 80.0514 24.6188C79.6582 25.1224 79.4618 25.798 79.4618 26.6454V31.6928H77.472V22.2612H79.2038L79.4247 23.4954C80.1004 22.611 81.0212 22.1628 82.1882 22.1504C82.8508 22.1504 83.4344 22.2914 83.9377 22.574C84.4412 22.8566 84.8284 23.2866 85.0986 23.8638C85.43 23.3234 85.8661 22.9058 86.4065 22.611C86.9472 22.304 87.5975 22.1504 88.3591 22.1504ZM102.818 22.2612V31.6928H101.068L100.847 30.2558C100.516 30.7226 100.092 31.0972 99.5762 31.3796C99.06 31.6622 98.4584 31.8034 97.7708 31.8034C96.911 31.8034 96.1433 31.613 95.4678 31.2324C94.7924 30.8392 94.2646 30.2804 93.8836 29.5558C93.5032 28.8192 93.313 27.9594 93.313 26.977C93.313 26.019 93.5032 25.1778 93.8836 24.4532C94.2768 23.7164 94.8111 23.1514 95.4868 22.7584C96.1623 22.3532 96.923 22.1504 97.7708 22.1504C98.4704 22.1504 99.0788 22.2856 99.5944 22.5558C100.111 22.8138 100.528 23.176 100.847 23.6426L101.087 22.2612H102.818ZM98.1022 30.127C98.9248 30.127 99.5884 29.8384 100.092 29.2612C100.595 28.684 100.847 27.935 100.847 27.0138C100.847 26.0804 100.595 25.319 100.092 24.7296C99.5884 24.14 98.9248 23.8454 98.1022 23.8454C97.2794 23.8454 96.6166 24.14 96.1125 24.7296C95.609 25.3066 95.3576 26.0558 95.3576 26.977C95.3576 27.9104 95.609 28.6716 96.1125 29.2612C96.6166 29.8384 97.2794 30.127 98.1022 30.127ZM105.37 24.0112H103.731V22.2612H105.37V19.6266H107.378V22.2612H109.644V24.0112H107.378V28.9296C107.378 29.298 107.452 29.5622 107.6 29.7218C107.747 29.8692 107.998 29.9428 108.354 29.9428H109.865V31.6928H107.949C107.053 31.6928 106.396 31.484 105.978 31.0666C105.573 30.649 105.37 30.0042 105.37 29.1322V24.0112ZM115.39 31.8034C114.446 31.8034 113.604 31.6066 112.867 31.2136C112.143 30.8084 111.577 30.2438 111.172 29.5192C110.78 28.7822 110.582 27.935 110.582 26.977C110.582 26.0312 110.78 25.196 111.172 24.4714C111.577 23.7346 112.143 23.1638 112.867 22.7584C113.604 22.3532 114.446 22.1504 115.39 22.1504C116.336 22.1504 117.172 22.3532 117.896 22.7584C118.633 23.1638 119.198 23.7346 119.591 24.4714C119.996 25.196 120.198 26.0312 120.198 26.977C120.198 27.935 119.996 28.7822 119.591 29.5192C119.198 30.2438 118.633 30.8084 117.896 31.2136C117.172 31.6066 116.336 31.8034 115.39 31.8034ZM115.39 30.1086C116.226 30.1086 116.896 29.82 117.399 29.2428C117.914 28.6534 118.173 27.898 118.173 26.977C118.173 26.0558 117.914 25.3066 117.399 24.7296C116.896 24.14 116.226 23.8454 115.39 23.8454C114.556 23.8454 113.886 24.14 113.383 24.7296C112.879 25.3066 112.628 26.0558 112.628 26.977C112.628 27.898 112.879 28.6534 113.383 29.2428C113.886 29.82 114.556 30.1086 115.39 30.1086ZM130.954 22.2612V31.306C130.954 32.6322 130.561 33.6578 129.775 34.3824C128.989 35.1194 127.773 35.4876 126.127 35.4876C124.85 35.4876 123.812 35.1988 123.015 34.6216C122.216 34.0568 121.774 33.2526 121.689 32.2086H123.714C123.837 32.7368 124.12 33.1418 124.562 33.4242C125.004 33.719 125.575 33.8664 126.275 33.8664C128.081 33.8664 128.983 32.9884 128.983 31.2324V30.1822C128.295 31.2138 127.27 31.7296 125.907 31.7296C125.047 31.7296 124.28 31.5392 123.604 31.1586C122.929 30.7656 122.4 30.213 122.02 29.5008C121.639 28.7762 121.448 27.9226 121.448 26.94C121.448 25.9946 121.639 25.1594 122.02 24.4348C122.413 23.7102 122.947 23.1514 123.622 22.7584C124.298 22.3532 125.059 22.1504 125.907 22.1504C126.619 22.1504 127.233 22.2914 127.749 22.574C128.265 22.8566 128.682 23.2436 129.002 23.7348L129.223 22.2612H130.954ZM126.238 30.0534C127.061 30.0534 127.724 29.7708 128.228 29.206C128.731 28.6288 128.983 27.8858 128.983 26.977C128.983 26.0436 128.731 25.2882 128.228 24.7112C127.724 24.1216 127.061 23.8266 126.238 23.8266C125.416 23.8266 124.752 24.1156 124.249 24.6926C123.745 25.27 123.493 26.019 123.493 26.94C123.493 27.8612 123.745 28.6104 124.249 29.1874C124.752 29.7646 125.416 30.0534 126.238 30.0534ZM132.548 26.9956C132.548 26.0252 132.739 25.1778 133.12 24.4532C133.512 23.7164 134.053 23.1514 134.74 22.7584C135.441 22.3532 136.239 22.1504 137.135 22.1504C138.044 22.1504 138.842 22.3348 139.53 22.7032C140.23 23.0716 140.776 23.5934 141.17 24.2688C141.575 24.9442 141.784 25.7366 141.796 26.6454C141.796 26.891 141.777 27.1428 141.741 27.4006H134.63V27.5112C134.679 28.334 134.937 28.985 135.404 29.4638C135.87 29.9428 136.491 30.1822 137.264 30.1822C137.879 30.1822 138.394 30.041 138.812 29.7586C139.229 29.4638 139.505 29.0524 139.64 28.5244H141.63C141.458 29.4822 140.991 30.2682 140.23 30.8824C139.481 31.4962 138.541 31.8034 137.411 31.8034C136.429 31.8034 135.57 31.6066 134.832 31.2136C134.108 30.8084 133.543 30.2438 133.138 29.5192C132.745 28.7946 132.548 27.9534 132.548 26.9956ZM139.769 25.9454C139.683 25.2576 139.407 24.7234 138.941 24.3426C138.486 23.9498 137.909 23.7532 137.209 23.7532C136.558 23.7532 135.993 23.9558 135.514 24.3612C135.047 24.754 134.777 25.2822 134.704 25.9454H139.769ZM148.379 22.1504C149.496 22.1504 150.404 22.4944 151.105 23.1822C151.816 23.8698 152.173 24.9752 152.173 26.498V31.6928H150.165V26.6086C150.165 25.7122 149.975 25.0304 149.594 24.5636C149.213 24.097 148.655 23.8638 147.917 23.8638C147.131 23.8638 146.511 24.14 146.057 24.6926C145.615 25.233 145.394 25.9822 145.394 26.94V31.6928H143.404V22.2612H145.136L145.357 23.4954C146.07 22.5988 147.076 22.1504 148.379 22.1504ZM154.977 18.4844C155.321 18.4844 155.609 18.6012 155.843 18.8344C156.076 19.0556 156.193 19.338 156.193 19.6818C156.193 20.0258 156.076 20.3146 155.843 20.5478C155.609 20.769 155.321 20.8792 154.977 20.8792C154.633 20.8792 154.344 20.769 154.111 20.5478C153.878 20.3146 153.761 20.0258 153.761 19.6818C153.761 19.338 153.878 19.0556 154.111 18.8344C154.344 18.6012 154.633 18.4844 154.977 18.4844ZM153.982 22.2612H155.972V31.6928H153.982V22.2612ZM160.593 26.8662L157.259 22.2612H159.58L161.846 25.448L164.148 22.2612H166.322L162.969 26.8662L166.525 31.6928H164.204L161.717 28.2662L159.211 31.6928H157.056L160.593 26.8662Z" fill="#F54C3B"/>
<path d="M26.1196 22.4647C26.7928 21.813 27.7246 21.3445 28.8825 21.0751L31.1283 20.515C31.349 20.4613 31.5052 20.262 31.5052 20.0358L31.6562 -36.8047H38.1729L38.022 15.1187C38.022 18.2208 35.6737 20.7681 32.6686 21.1291C32.4584 21.1559 32.2753 21.3013 32.2323 21.506C31.9954 22.6047 31.866 23.7572 31.866 24.9582C31.866 26.0838 31.9954 27.1771 32.2323 28.2758C32.2753 28.486 32.4584 28.6311 32.6686 28.6582C35.679 29.019 38.022 31.5665 38.022 34.6684L38.1118 64.762H31.5951L31.5052 29.7783C31.5052 29.5469 31.3435 29.3422 31.1121 29.2939L28.8985 28.8199C27.7299 28.5666 26.7981 28.1141 26.1248 27.4734C25.4194 26.8003 25.0587 25.9544 25.0587 24.9582C25.0532 23.9834 25.414 23.1432 26.1196 22.4647Z" fill="#F54C3B"/>
<path d="M14.4742 22.5054C13.8009 21.8537 12.8691 21.3852 11.7112 21.1158L9.46547 20.5557C9.24476 20.502 9.08852 20.3029 9.08852 20.0767L8.95433 -22.4141H2.4376L2.5718 15.1596C2.5718 18.2617 4.92002 20.8088 7.92512 21.1698C8.13532 21.1966 8.31845 21.342 8.3615 21.5467C8.59838 22.6454 8.72774 23.7979 8.72774 24.9989C8.72774 26.1245 8.59838 27.2178 8.3615 28.3165C8.31845 28.5267 8.13532 28.6718 7.92512 28.6989C4.91477 29.0597 2.5718 31.6074 2.5718 34.7093L2.48486 64.6528H9.00158L9.08852 29.819C9.08852 29.5876 9.25022 29.3829 9.48164 29.3346L11.6952 28.8606C12.8639 28.6073 13.7957 28.1548 14.4689 27.5141C15.1743 26.841 15.5351 25.9951 15.5351 24.9989C15.5406 24.0241 15.1798 23.1839 14.4742 22.5054Z" fill="#F54C3B"/>
</g>
<defs>
<clipPath id="clip0_5016_281343">
<rect width="170" height="50" fill="white"/>
</clipPath>
</defs>
</svg>
