<svg width="421" height="424" viewBox="0 0 421 424" fill="none" xmlns="http://www.w3.org/2000/svg">
<mask id="mask0_53_1759" style="mask-type:alpha" maskUnits="userSpaceOnUse" x="0" y="0" width="421" height="424">
<rect width="421" height="424" fill="#19B86D"/>
</mask>
<g mask="url(#mask0_53_1759)">
<path opacity="0.75" d="M-31.9742 355.452C-19.9051 369.785 13.328 408.091 73.0808 422.822C145.244 440.617 240.94 420.308 258.7 375.586C276.847 329.883 196.079 302.824 166.377 196.779C141.294 107.195 179.983 58.8441 146.049 37.7782C106.209 13.0462 12.6325 54.685 -35.0295 113.252C-40.0803 119.46 -57.8687 142.141 -68.2423 176.648C-71.3935 187.136 -96.9846 278.268 -31.9742 355.452Z" fill="white" fill-opacity="0.7"/>
<path d="M125.359 453.35C146.714 457.353 204.604 467.423 265.477 441.038C338.995 409.175 401.458 330.819 380.363 282.629C358.814 233.384 270.821 263.176 161.797 195.17C69.6901 137.721 62.9135 73.0572 18.2169 77.6085C-34.2619 82.9547 -77.9618 177.461 -70.4093 256.288C-69.6073 264.645 -66.1381 294.746 -47.1277 329.781C-41.3505 340.431 10.3327 431.809 125.365 453.358L125.359 453.35Z" fill="white" fill-opacity="0.2"/>
<path d="M272.672 385.322C294.622 384.435 379.111 407.769 430.41 376.457C492.368 338.644 493.639 328.918 458.79 296.104C384.5 292.5 320.5 302.25 216 276C109.376 249.216 87.8502 195.004 45.7602 206.706C-3.65509 220.445 -24.2352 302.067 12.8507 359.101C16.1192 365.317 38.1949 361.965 67.104 385.146C75.8922 392.19 154.463 390.11 272.672 385.322Z" fill="#F7F7F7"/>
</g>
</svg>
