<svg width="204" height="212" viewBox="0 0 204 212" fill="none" xmlns="http://www.w3.org/2000/svg">
<path opacity="0.75" d="M45.7174 141.487C49.8652 146.971 61.2865 161.626 81.8219 167.262C106.622 174.07 139.511 166.3 145.614 149.19C151.851 131.705 124.093 121.353 113.885 80.7823C105.265 46.5094 118.561 28.0113 106.899 19.952C93.2073 10.49 61.0475 26.4202 44.6673 48.8266C42.9315 51.2019 36.8181 59.8791 33.253 73.0806C32.17 77.0933 23.375 111.958 45.7174 141.487Z" fill="#00B259"/>
<path d="M99.7882 178.941C107.127 180.472 127.022 184.325 147.943 174.231C173.209 162.041 194.676 132.063 187.426 113.627C180.02 94.7866 149.78 106.185 112.311 80.1669C80.6563 58.1881 78.3274 33.4489 62.9664 35.1902C44.9308 37.2355 29.9123 73.3915 32.5079 103.549C32.7835 106.746 33.9758 118.263 40.5092 131.666C42.4946 135.741 60.2568 170.7 99.7902 178.944L99.7882 178.941Z" fill="#00B061" fill-opacity="0.3"/>
<rect x="76.9829" y="62.5487" width="67.1175" height="78.6705" rx="6" fill="#FDFDFD"/>
<g filter="url(#filter0_d_40_312)">
<rect x="73.2896" y="58.3014" width="67.1175" height="78.6705" rx="6" fill="#FDFDFD"/>
</g>
<rect x="77.9658" y="64.0781" width="17.3295" height="3.02579" rx="1.51289" fill="#00963A"/>
<rect x="77.9658" y="77.2811" width="23.6562" height="3.02579" rx="1.51289" fill="#00963A"/>
<rect x="77.9658" y="90.76" width="23.6562" height="3.02579" rx="1.51289" fill="#00963A"/>
<rect x="77.9658" y="104.238" width="23.6562" height="3.02579" rx="1.51289" fill="#00963A"/>
<rect x="77.9658" y="81.9576" width="46.212" height="3.02579" rx="1.51289" fill="#D9D9D9"/>
<rect x="77.9658" y="95.4362" width="46.212" height="3.02579" rx="1.51289" fill="#D9D9D9"/>
<rect x="77.9658" y="108.915" width="46.212" height="3.02579" rx="1.51289" fill="#D9D9D9"/>
<rect x="77.9658" y="124.044" width="58.8653" height="8.25215" rx="4.12607" fill="#00B061"/>
<defs>
<filter id="filter0_d_40_312" x="39.2896" y="48.3014" width="135.118" height="146.67" filterUnits="userSpaceOnUse" color-interpolation-filters="sRGB">
<feFlood flood-opacity="0" result="BackgroundImageFix"/>
<feColorMatrix in="SourceAlpha" type="matrix" values="0 0 0 0 0 0 0 0 0 0 0 0 0 0 0 0 0 0 127 0" result="hardAlpha"/>
<feOffset dy="24"/>
<feGaussianBlur stdDeviation="17"/>
<feComposite in2="hardAlpha" operator="out"/>
<feColorMatrix type="matrix" values="0 0 0 0 0 0 0 0 0 0 0 0 0 0 0 0 0 0 0.15 0"/>
<feBlend mode="normal" in2="BackgroundImageFix" result="effect1_dropShadow_40_312"/>
<feBlend mode="normal" in="SourceGraphic" in2="effect1_dropShadow_40_312" result="shape"/>
</filter>
</defs>
</svg>
